<svg width="143" height="35" viewBox="0 0 143 35" fill="none" xmlns="http://www.w3.org/2000/svg">
<path d="M143.002 0H0V34.9981H107.84L143.002 0Z" fill="#004B88"/>
<path d="M20.4629 22.0139C19.1551 22.3742 17.8041 22.5562 16.4471 22.5549C12.8402 22.5549 8.66992 20.7412 8.66992 15.6484C8.66992 10.9603 11.9678 8.625 16.4276 8.625C17.7968 8.625 19.1425 8.93443 20.4433 9.31975L20.1519 12.2388C19.0804 11.6213 17.8653 11.2932 16.6271 11.2872C14.0666 11.2872 12.3981 13.1399 12.3981 15.6484C12.3981 18.2911 14.2798 19.8927 16.9166 19.8927C18.0744 19.8673 19.2179 19.6318 20.2907 19.198L20.4629 22.0139Z" fill="white"/>
<path d="M29.1455 15.0491C28.7589 14.9532 28.3601 14.9145 27.9621 14.9343C26.3347 14.9343 25.4192 16.1117 25.4192 18.0792V22.3235H21.9375V12.2721H25.118V14.1228H25.1571C25.7576 12.8501 26.63 12.0405 28.144 12.0405C28.5409 12.048 28.9366 12.0864 29.3274 12.1553L29.1455 15.0491Z" fill="white"/>
<path d="M29.7148 17.3066C29.7148 13.9691 32.2577 12.0405 35.583 12.0405C38.9082 12.0405 41.4687 13.9691 41.4687 17.3066C41.4687 20.6441 38.9258 22.561 35.5908 22.561C32.2557 22.561 29.7148 20.6285 29.7148 17.3066ZM37.8598 17.3066C37.8598 15.8023 37.2006 14.4712 35.5908 14.4712C33.981 14.4712 33.3218 15.8023 33.3218 17.3066C33.3218 18.8109 33.981 20.1245 35.5908 20.1245C37.2006 20.1245 37.8598 18.7934 37.8598 17.3066Z" fill="white"/>
<path d="M43.156 12.2719H46.3366V14.1226H46.3757C47.074 12.6767 48.4706 12.0403 50.0609 12.0403C51.4946 12.0403 52.678 12.6572 53.2218 13.9689C54.0355 12.6183 55.3735 12.0403 56.8092 12.0403C59.7178 12.0403 60.377 13.6789 60.377 16.3995V22.3233H56.8874V16.9308C56.8874 15.7923 56.4806 14.9438 55.4908 14.9438C54.2487 14.9438 53.5133 15.9266 53.5133 18.0887V22.3331H50.0217V16.9308C50.0217 15.7923 49.6149 14.9438 48.6251 14.9438C47.383 14.9438 46.6476 15.9266 46.6476 18.0887V22.3331H43.156V12.2719Z" fill="white"/>
<path d="M62.4746 12.2721H65.6942V14.0858H65.7334C66.4317 12.6769 67.9065 12.0405 69.4948 12.0405C72.288 12.0405 73.8196 14.6833 73.8196 17.1139C73.8196 20.0856 72.2118 22.5629 69.2053 22.5629C67.9828 22.5629 66.6625 22.1192 66.0053 20.9224H65.9661V26.383H62.4746V12.2721ZM68.1002 14.7027C66.819 14.7027 65.9661 15.8217 65.9661 17.326C65.9661 18.7934 66.9441 19.8929 68.1002 19.8929C69.4185 19.8929 70.2127 18.7934 70.2127 17.1918C70.2225 15.8607 69.4577 14.7027 68.1002 14.7027Z" fill="white"/>
<path d="M74.6172 12.2721H76.6769V10.0147L80.1058 8.95215V12.2721H82.545V14.7028H80.1058V18.4003C80.1058 19.6166 80.3953 20.2335 81.5024 20.2335C81.8608 20.2166 82.2172 20.1717 82.5685 20.0992L82.6839 22.3567C81.9586 22.4686 81.2268 22.5336 80.4931 22.5513C77.3635 22.5513 76.6143 21.189 76.6143 18.7895V14.7028H74.6172V12.2721Z" fill="white"/>
<path d="M83.6367 17.3066C83.6367 13.9691 86.1796 12.0405 89.5048 12.0405C92.8301 12.0405 95.3729 13.9691 95.3729 17.3066C95.3729 20.6441 92.8301 22.561 89.5048 22.561C86.1796 22.561 83.6367 20.6285 83.6367 17.3066ZM91.7817 17.3066C91.7817 15.8023 91.1225 14.4712 89.5127 14.4712C87.9028 14.4712 87.2397 15.8023 87.2397 17.3066C87.2397 18.8109 87.8989 20.1245 89.5087 20.1245C91.1186 20.1245 91.7817 18.7934 91.7817 17.3066Z" fill="white"/>
<path d="M97.0762 12.2719H100.257V14.1226H100.296C100.994 12.6767 102.391 12.0403 103.981 12.0403C106.735 12.0403 107.84 13.9689 107.84 16.0531V22.3233H104.351V17.4582C104.351 15.5666 103.69 14.9283 102.741 14.9283C101.305 14.9283 100.568 15.911 100.568 18.0731V22.3175H97.0762V12.2719Z" fill="white"/>
</svg>
