<svg width="65" height="43" viewBox="0 0 65 43" fill="none" xmlns="http://www.w3.org/2000/svg">
<g clip-path="url(#clip0_75_23)">
<path d="M1.01172 32.3379H4.05419V35.599H6.93086V32.3379H9.97377V41.9743H6.93086V38.2454H4.05419V41.9743H1.01172V32.3379ZM14.2874 32.3379H17.3689L20.6809 41.9743H17.664L17.2923 40.692H14.2874L13.9276 41.9743H10.9751L14.2874 32.3379ZM14.8528 38.6859H16.7655L15.7895 35.2384L14.8528 38.6859ZM20.1164 32.3379H23.1853L24.8157 38.7397L26.4974 32.3379H29.553L26.3433 41.9743H23.288L20.1164 32.3379ZM30.7988 32.3379H38.348V34.5834H33.8415V35.9736H37.6417V38.2185H33.8415V39.7291H38.5283V41.9743H30.7988V32.3379ZM40.0814 32.3379H43.1245V39.7291H47.2838V41.9743H40.0814V32.3379ZM48.6575 32.3379H51.7004V39.7291H55.8607V41.9743H48.6577L48.6575 32.3379ZM61.9721 35.1308C61.8952 34.579 61.4804 34.303 60.7264 34.303C60.1271 34.303 59.8157 34.4765 59.7894 34.8242C59.7812 35.0383 59.8809 35.2156 60.0911 35.3585C60.3009 35.501 60.5812 35.6191 60.932 35.713C61.2829 35.8069 61.6215 35.8936 61.9463 35.9736C63.0335 36.241 63.8341 36.602 64.3473 37.0556C64.8607 37.5101 65.1134 38.1389 65.105 38.9405C65.105 39.7243 64.9036 40.364 64.5016 40.8588C64.0987 41.3527 63.5705 41.707 62.9162 41.9212C62.2615 42.135 61.5575 42.2415 60.8035 42.2415C59.6741 42.2415 58.7175 41.9407 57.934 41.3395C57.1505 40.7382 56.7337 39.9568 56.6824 38.9943H59.597C59.6652 39.377 59.8432 39.6448 60.1301 39.7959C60.4162 39.9472 60.7138 40.0231 61.0222 40.0231C61.7667 39.9878 62.1605 39.769 62.2034 39.3679C62.2374 39.0918 62.103 38.88 61.799 38.7336C61.4949 38.5862 61.0263 38.4331 60.3924 38.2722C59.597 38.0671 58.963 37.8574 58.4927 37.6439C58.0272 37.4344 57.6261 37.1045 57.3306 36.6881C57.0265 36.2653 56.8789 35.7065 56.8878 35.0107C56.9052 34.1462 57.2704 33.4426 57.9856 32.8993C58.7001 32.3552 59.6782 32.084 60.9195 32.084C61.5783 32.084 62.1837 32.1803 62.7357 32.3708C63.2886 32.5627 63.7565 32.8886 64.1423 33.347C64.5272 33.806 64.7669 34.4004 64.8607 35.1308H61.9721Z" fill="#ED1C24"/>
<path d="M24.8488 7.62877C24.7664 7.6291 24.6841 7.62345 24.6026 7.61186C24.0856 7.53424 23.6938 7.22808 23.5003 6.74997C23.4092 6.52447 23.3652 6.28856 23.3652 6.02794C23.3652 5.66258 23.4541 5.29788 23.5326 5.02056C23.956 3.51122 24.4407 2.4518 25.0143 1.77942C25.1146 1.66005 25.2253 1.54996 25.3453 1.45049L25.38 1.42599C25.393 1.41472 25.4075 1.40453 25.4207 1.39499C25.6322 1.24082 25.8364 1.16667 26.0343 1.16602C26.5057 1.16602 27.0065 1.59707 27.4467 2.38068C27.9051 3.19379 28.3024 4.37853 28.5976 5.80786C28.6968 6.29095 28.7822 6.78401 28.857 7.3083C28.6515 7.32196 28.4452 7.33519 28.2397 7.3495C27.5497 7.3972 26.9107 7.44751 26.2876 7.50323C25.9812 7.53142 25.6745 7.56004 25.3691 7.59105L25.2976 7.5982C25.1416 7.61446 24.9942 7.62856 24.849 7.62856" fill="#F25746"/>
<path d="M25.6592 24.359H25.6531C25.4487 24.359 25.2385 24.2766 25.0293 24.1151H25.0287L25.0226 24.1086L25.0072 24.0973L24.9934 24.0865L24.9784 24.0739C24.9706 24.0685 24.9641 24.062 24.9559 24.0572C24.8374 23.9536 24.729 23.8391 24.6318 23.7153C24.0601 22.9978 23.5987 21.8675 23.2224 20.2612C23.1392 19.9091 23.0586 19.5331 23.0586 19.1636C23.0586 18.8922 23.1017 18.6383 23.1908 18.3872C23.3776 17.8592 23.7584 17.4951 24.2621 17.3631C24.4062 17.3269 24.5544 17.3092 24.7029 17.3106C24.7998 17.3106 24.8984 17.3165 25.0168 17.328C25.3232 17.359 25.6466 17.3882 25.9769 17.4175C26.6373 17.475 27.3273 17.5281 28.03 17.5754C28.2779 17.5921 28.5272 17.6077 28.7755 17.6237C28.6754 18.2814 28.5601 18.89 28.4262 19.4811C28.0909 20.9594 27.6542 22.1944 27.1648 23.05C26.6893 23.8814 26.1396 24.359 25.6555 24.359" fill="#BA151B"/>
<path d="M46.5007 12.7734C46.486 9.77423 45.5157 6.80153 43.7678 4.40255C42.3536 2.4626 40.5203 0.977763 38.4004 0.0362989C38.2372 -0.0283157 37.6846 -0.179011 37.5441 -0.150823C37.0211 -0.0463123 36.6473 0.44632 36.5337 1.08358C36.5055 1.23969 36.4936 1.40513 36.499 1.57491C36.4787 1.89798 36.46 2.23666 36.4422 2.60614C36.4362 2.66772 36.4357 2.7616 36.4314 2.87327C36.4154 3.29001 36.3915 3.91946 36.3497 4.16404C35.9797 6.2922 33.8358 7.63957 31.9782 7.71307C30.7104 7.76208 29.4655 7.82907 28.2789 7.91039C27.6204 7.957 26.9674 8.00839 26.3376 8.0639C26.0342 8.09144 25.7292 8.11962 25.4245 8.15063L25.3541 8.15779C25.1915 8.17448 25.0229 8.19183 24.848 8.19183C24.731 8.19183 24.6226 8.18467 24.5205 8.16928C23.807 8.06347 23.2448 7.62331 22.9789 6.96112C22.8599 6.66688 22.8025 6.36202 22.8025 6.02659C22.8025 5.5951 22.903 5.18031 22.9902 4.86765C23.1521 4.29435 23.3755 3.57405 23.6917 2.87826C22.6117 3.9758 21.7189 5.24314 21.0489 6.6298C20.1519 8.4878 19.6566 10.5646 19.6172 12.6377V12.9126C19.6165 16.5525 20.9629 19.9942 23.3547 22.5766C23.0381 21.8149 22.8276 21.0187 22.6807 20.3903C22.5897 20.0055 22.5021 19.5935 22.5021 19.1637C22.5021 18.8266 22.5552 18.5115 22.6651 18.1995C22.9161 17.4894 23.4347 16.9998 24.1261 16.8192C24.3162 16.7697 24.5121 16.7456 24.7086 16.7476C24.8222 16.7476 24.9436 16.7541 25.0792 16.7678C26.0757 16.8652 27.0737 16.9471 28.0727 17.0135C29.3083 17.0971 30.6098 17.1641 31.9412 17.2138C32.9706 17.252 34.0402 17.6722 34.8748 18.3662C35.7574 19.0998 36.3198 20.0735 36.4602 21.1106C36.4895 21.3277 36.5181 21.9493 36.5396 22.4025C36.5467 22.5514 36.5515 22.6746 36.5558 22.7451C36.5857 23.2663 36.6161 23.7249 36.649 24.1462V24.1486C36.6627 24.3329 36.6772 24.5014 36.6908 24.6586C36.8068 25.2468 37.152 25.7017 37.6414 25.8153C37.8083 25.8548 37.9778 25.8481 38.1434 25.8069C38.2784 25.7495 38.4126 25.6903 38.5461 25.6293C40.6397 24.6575 42.4455 23.1557 43.8347 21.2125C45.5551 18.8027 46.5027 15.8298 46.5027 12.8445V12.7734H46.5007Z" fill="#ED1C24"/>
</g>
<defs>
<clipPath id="clip0_75_23">
<rect width="64" height="42" fill="white" transform="translate(0.947266 0.0703125)"/>
</clipPath>
</defs>
</svg>
