<svg width="136" height="25" viewBox="0 0 136 25" fill="none" xmlns="http://www.w3.org/2000/svg">
<g clip-path="url(#clip0_72_72)">
<path d="M13.8596 9.23612C13.8596 12.3493 12.3591 14.4578 8.55911 14.4578H7.35838V4.54304C7.78524 4.51882 8.1839 4.51882 8.55911 4.51882C12.1572 4.51848 13.8596 6.22494 13.8596 9.23612ZM9.95899 18.7747C16.7583 18.7747 21.0572 15.2599 21.0572 9.13688C21.0568 2.40895 16.4578 0 8.95912 0C6.05909 0 2.55954 0.200177 0.0605469 0.501296V24.4987H7.35872V18.7747H9.95899ZM107.743 9.23612C107.743 12.3493 106.245 14.4578 102.444 14.4578H101.247V4.54304C101.67 4.51882 102.069 4.51882 102.444 4.51882C106.042 4.51848 107.743 6.22494 107.743 9.23612ZM103.847 18.7747C110.641 18.7747 114.942 15.2599 114.942 9.13688C114.942 2.40895 110.344 0 102.844 0C99.945 0 96.4434 0.200177 93.9441 0.501296V24.4987H101.246V18.7747H103.847ZM124.439 6.62563C124.439 5.3209 125.74 4.71764 127.838 4.71764C130.139 4.71764 132.64 5.21996 134.338 5.92552L133.739 0.702837C131.838 0.301119 130.139 0 127.04 0C121.14 0 117.142 2.33529 117.142 7.22991C117.142 15.6616 128.542 13.9561 128.542 17.8717C128.542 19.3763 127.441 20.179 124.74 20.179C122.344 20.179 118.642 19.3763 116.443 18.2724L117.245 23.7962C119.442 24.5993 122.442 24.9997 124.842 24.9997C130.939 24.9997 135.94 22.9911 135.94 16.966C135.94 8.93671 124.439 10.4413 124.439 6.62563ZM88.4471 0.501296H81.149V24.4987H88.4471V0.501296ZM58.851 0.501296H51.5522V24.4987H58.851V0.501296ZM71.5489 19.6777V0.501296H64.2501V24.4987H77.4492L78.548 19.6777H71.5489ZM46.1535 0.501296H38.8546V10.0396H31.2557V0.501296H23.9555V24.4987H31.2554V15.0597H38.8543V24.4987H46.1532L46.1535 0.501296Z" fill="#1978BE"/>
</g>
<defs>
<clipPath id="clip0_72_72">
<rect width="136" height="25" fill="white"/>
</clipPath>
</defs>
</svg>
